<?xml version="1.0" encoding="UTF-8"?>
<svg xmlns="http://www.w3.org/2000/svg" viewBox="0 0 145 38" fill="none">
  <g transform="translate(0, -1) scale(0.14)">
    <path d="M0 0 C0.8 0 1.6 0 2.4 0 C8.3 0 13.2 1.2 18.7 3.4 C19 2.4 19.3 1.4 19.7 0.4 C22.6 0.2 25.6 0.1 28.5 0.1 C29.8 0 29.8 0 31 0 C33.3 -0.1 35.4 -0.1 37.7 0.4 C40.6 3.7 41.2 7 41.7 11.4 C42.7 11.4 43.7 11.4 44.7 11.4 C45.4 13 45.4 13 46.1 14.8 C47.4 18.3 47.4 18.3 49.7 20.4 C52.1 17.6 54 14.8 55.8 11.6 C57.7 8.4 57.7 8.4 60.7 7.4 C60.7 6.4 60.6 5.4 60.6 4.4 C60.7 1.4 60.7 1.4 61.7 0.4 C65.9 0 70.1 -0.1 74.3 -0.2 C75.7 -0.2 77.1 -0.3 78.5 -0.4 C90.2 -1 90.2 -1 93.9 2.3 C95.4 4.6 96.6 6.9 97.7 9.4 C100.4 13 103.4 16.2 106.7 19.4 C108.7 21.4 108.7 21.4 108.7 25.4 C109.3 25.4 110 25.4 110.7 25.4 C111.7 26.9 111.7 26.9 112.7 28.4 C112.7 27.2 112.7 27.2 112.8 26 C112.9 22.5 113 19 113.1 15.4 C113.2 14.2 113.2 13 113.2 11.7 C113.3 10.5 113.3 9.4 113.4 8.2 C113.4 6.5 113.4 6.5 113.5 4.9 C113.7 2.4 113.7 2.4 114.7 1.4 C116.8 1.3 119 1.2 121.1 1.3 C122.9 1.2 122.9 1.2 124.7 1.2 C127.7 1.4 127.7 1.4 129.7 2.4 C129.7 9.6 129.7 16.9 129.7 24.4 C130.3 24.4 131 24.4 131.7 24.4 C131.7 23.4 131.8 22.4 131.8 21.4 C132.8 14.3 138.6 8.9 143.9 4.6 C146.7 2.7 149.4 2.1 152.7 1.4 C153 1 153.3 0.7 153.7 0.4 C164.8 -0.6 175.4 0.4 184.3 7.8 C190.7 14.1 191.9 19.7 192.1 28.6 C192.2 36.2 190.7 40.5 185.7 46.4 C185.4 47.4 185 48.4 184.7 49.4 C183.7 49.7 182.7 50 181.7 50.4 C181.4 51 181 51.7 180.7 52.4 C181.8 52 182.8 51.7 183.9 51.4 C187.7 50.4 187.7 50.4 191.7 50.4 C192.7 54.8 192.7 54.8 193.7 59.4 C187.5 62.6 181.7 65 174.7 63.4 C173.9 62.7 173.1 62 172.3 61.3 C169 58.9 167.5 59 163.5 59.3 C153.1 59.6 147 57.3 139.3 50.2 C137.7 48.4 137.7 48.4 137.7 46.4 C137 46.4 136.4 46.4 135.7 46.4 C132 42.9 131.6 38.2 130.7 33.4 C129.7 38.5 129.4 43.6 129.1 48.8 C129.1 50 129.1 50 129 51.3 C128.9 53.3 128.8 55.3 128.7 57.4 C117.3 58.4 117.3 58.4 113.7 56.1 C112.2 54.3 111 52.4 109.7 50.4 C108.4 49 107.2 47.6 105.9 46.2 C102.8 42.9 102.8 42.9 102.2 40.2 C102 39.6 101.9 39 101.7 38.4 C100.2 37.9 100.2 37.9 98.7 37.4 C97 34.7 95.4 32.1 93.7 29.4 C93.4 38.6 93 47.9 92.7 57.4 C90.2 57.4 87.8 57.4 85.3 57.4 C84.1 57.5 84.1 57.5 82.9 57.5 C81.2 57.5 79.4 57.4 77.7 57.4 C76.1 55.8 76.5 54.3 76.5 52.1 C76.5 50.8 76.5 50.8 76.4 49.4 C76.4 48.4 76.4 47.4 76.4 46.4 C76.4 45.4 76.3 44.4 76.3 43.4 C76.2 40.2 76.2 37 76.1 33.8 C76.1 31.6 76 29.5 76 27.3 C75.9 22 75.8 16.7 75.7 11.4 C75.3 12.2 75.3 12.2 74.9 13 C74.5 13.8 74.2 14.5 73.8 15.2 C73.5 16 73.1 16.7 72.8 17.4 C71.4 19.8 69.7 21.5 67.7 23.4 C67.4 24.2 67.1 25 66.8 25.8 C65.6 28.6 64.3 29.8 62.1 31.9 C56.2 39 57.6 49.6 57.7 58.4 C52.4 58.4 47.1 58.4 41.7 58.4 C41.6 56.2 41.6 56.2 41.6 54 C41.5 52 41.4 50.1 41.4 48.2 C41.4 47.2 41.3 46.3 41.3 45.3 C41.1 40.2 41 36.5 37.7 32.4 C36.9 31.2 36.9 31.2 36 30 C35.4 29.2 34.8 28.4 34.3 27.6 C26.7 16.8 26.7 16.8 26.7 11.4 C26 11.4 25.4 11.4 24.7 11.4 C24 10.4 23.4 9.4 22.7 8.4 C22 8.4 21.4 8.4 20.7 8.4 C19.7 11.3 18.7 14.3 17.7 17.4 C15.8 17.4 15.8 17.4 13.9 17.5 C13.2 17.5 12.5 17.5 11.8 17.6 C9.7 17.4 9.7 17.4 7.8 16.3 C5 15 3 15.4 -0.1 15.8 C-1 15.9 -2 16 -3 16.1 C-3.8 16.2 -4.5 16.3 -5.3 16.4 C-5.6 17.4 -6 18.4 -6.3 19.4 C-4.3 19.7 -2.4 20 -0.3 20.4 C-0.3 21 -0.3 21.7 -0.3 22.4 C0.7 22.4 0.7 22.4 1.8 22.4 C8.7 22.8 13.4 24 18.7 28.4 C19.8 29.2 19.8 29.2 20.9 30.1 C24.1 34.2 23.5 39.4 23.3 44.5 C22.6 49.2 21.6 51.3 17.9 54.1 C7.2 60.2 -2.1 60.7 -13.9 57.6 C-20 55.8 -20 55.8 -22.3 52.4 C-22.5 50.2 -22.5 50.2 -22.5 47.9 C-22.5 46.7 -22.5 46.7 -22.5 45.5 C-22.3 43.4 -22.3 43.4 -21.3 40.4 C-16.8 40 -14.2 41.3 -10.3 43.4 C-7.4 44.3 -4.8 44.5 -1.8 44.5 C-1 44.5 -0.2 44.5 0.6 44.5 C2.9 44.5 2.9 44.5 5.7 43.4 C6 42.4 6.3 41.4 6.7 40.4 C6.2 40.2 5.6 40 5.1 39.9 C2.6 39 0.2 38.2 -2.3 37.4 C-3.2 37.1 -4.2 36.7 -5.1 36.4 C-11.7 34.2 -16.9 32 -21.7 26.9 C-24.1 21.7 -24.5 17 -23.3 11.4 C-17.7 2.7 -9.9 -0.1 0 0 Z " fill="#64AAE4" transform="translate(51.3,109.6)"/>
    <path d="M0 0 C10.2 0.1 18.7 2.3 26.1 9.6 C32.3 16.5 32.3 24.2 32.1 33.1 C31.8 38.7 29.3 42.1 25.7 46.3 C25.4 47.3 25 48.3 24.7 49.3 C23.7 49.6 22.7 50 21.7 50.3 C21.2 51.3 21.2 51.3 20.7 52.3 C22.3 51.8 22.3 51.8 23.9 51.3 C27.7 50.3 27.7 50.3 31.7 50.3 C32.7 54.8 32.7 54.8 33.7 59.3 C27.5 62.5 21.7 64.9 14.7 63.3 C13.9 62.6 13.1 62 12.3 61.3 C9 58.8 7.5 59 3.5 59.3 C-6.9 59.5 -13 57.3 -20.7 50.2 C-22.3 48.3 -22.3 48.3 -22.3 46.3 C-23 46.3 -23.6 46.3 -24.3 46.3 C-28 42.8 -28.4 38.1 -29.3 33.3 C-29.6 35.3 -30 37.3 -30.3 39.3 C-30.6 39.3 -31 39.3 -31.3 39.3 C-31.3 27.1 -31.3 14.9 -31.3 2.3 C-31 2.3 -30.7 2.3 -30.3 2.3 C-30.3 9.6 -30.3 16.8 -30.3 24.3 C-29.7 24.3 -29 24.3 -28.3 24.3 C-28.3 23.3 -28.2 22.3 -28.2 21.3 C-27.2 14.3 -21.4 8.9 -16.1 4.5 C-13.3 2.7 -10.6 2 -7.3 1.3 C-5.4 -0.6 -2.5 0.1 0 0 Z " fill="#2270CD" transform="translate(211.3,109.7)"/>
    <path d="M0 0 C6.3 1.6 9.1 7 12.4 12.3 C14.1 14.8 16.3 16.8 18.5 18.9 C20.5 20.9 20.5 20.9 20.5 24.9 C21.2 24.9 21.8 24.9 22.5 24.9 C23.2 25.9 23.8 26.9 24.5 27.9 C24.5 26.7 24.5 26.7 24.6 25.5 C24.7 22 24.8 18.5 24.9 14.9 C25 13.7 25 12.5 25.1 11.2 C25.1 10 25.1 8.9 25.2 7.7 C25.2 6.6 25.3 5.5 25.3 4.4 C25.5 1.9 25.5 1.9 26.5 0.9 C28.7 0.8 30.8 0.7 33 0.8 C34.2 0.8 35.4 0.7 36.6 0.7 C39.5 0.9 39.5 0.9 40.5 1.9 C40.6 3.6 40.6 5.3 40.6 7 C40.6 8.1 40.6 9.2 40.6 10.4 C40.6 11.6 40.6 12.8 40.6 14 C40.6 15.2 40.6 16.4 40.6 17.7 C40.6 21.6 40.6 25.5 40.6 29.4 C40.6 32.1 40.6 34.7 40.6 37.4 C40.5 43.9 40.5 50.4 40.5 56.9 C38.4 57 36.3 57 34.2 57.1 C32.5 57.1 32.5 57.1 30.7 57.2 C27.3 56.9 26.3 56.5 24.1 53.9 C23.2 52.6 22.4 51.2 21.5 49.9 C20.2 48.5 19 47.1 17.7 45.7 C14.6 42.4 14.6 42.4 14 39.7 C13.8 39.1 13.7 38.5 13.5 37.9 C12 37.4 12 37.4 10.5 36.9 C8.9 34.2 7.2 31.6 5.5 28.9 C5.2 38.1 4.8 47.4 4.5 56.9 C-0.4 56.9 -5.4 56.9 -10.5 56.9 C-10.5 49.1 -10.5 41.2 -10.6 33.4 C-10.6 30.8 -10.6 28.1 -10.6 25.5 C-10.6 21.6 -10.6 17.8 -10.6 14 C-10.6 12.8 -10.6 11.6 -10.6 10.4 C-10.6 9.3 -10.6 8.2 -10.6 7 C-10.6 6.1 -10.6 5.1 -10.6 4.1 C-10.3 -1.2 -4.1 0 0 0 Z " fill="#EAEBEA" transform="translate(139.5,110.1)"/>
  </g>
  <text x="45" y="29" font-family="Arial, sans-serif" font-weight="900" font-size="28" fill="#000000" letter-spacing="-1">SYNQ</text>
</svg>
